<svg width="169" height="47" viewBox="0 0 169 47" fill="none" xmlns="http://www.w3.org/2000/svg">
<path d="M0.592 36V11.232H4.144V14.112H4.336C4.72 13.152 5.264 12.336 5.968 11.664C6.672 10.992 7.712 10.656 9.088 10.656C10.528 10.656 11.6 11.024 12.304 11.76C13.008 12.464 13.44 13.392 13.6 14.544H13.744C14.192 13.424 14.832 12.496 15.664 11.76C16.496 11.024 17.648 10.656 19.12 10.656C21.136 10.656 22.48 11.36 23.152 12.768C23.856 14.176 24.208 16.192 24.208 18.816V36H20.656V19.44C20.656 17.328 20.432 15.872 19.984 15.072C19.568 14.24 18.784 13.824 17.632 13.824C16.608 13.824 15.776 14.16 15.136 14.832C14.496 15.472 14.176 16.464 14.176 17.808V36H10.624V19.44C10.624 17.328 10.4 15.872 9.952 15.072C9.536 14.24 8.768 13.824 7.648 13.824C6.624 13.824 5.776 14.16 5.104 14.832C4.464 15.472 4.144 16.464 4.144 17.808V36H0.592ZM49.1973 11.232H53.0373L40.7493 41.424C40.4613 42.128 40.1413 42.736 39.7893 43.248C39.4373 43.792 39.0213 44.224 38.5413 44.544C38.0613 44.896 37.4853 45.152 36.8133 45.312C36.1413 45.504 35.3413 45.6 34.4133 45.6H30.7653V42.336H36.5253L39.3093 35.52L29.3253 11.232H33.2613L37.4373 21.6L41.1333 31.008H41.3253L45.0213 21.6L49.1973 11.232ZM59.7865 2.496H71.1625C74.0425 2.496 76.2985 3.28 77.9305 4.848C79.5625 6.416 80.3785 8.512 80.3785 11.136C80.3785 13.152 79.8825 14.736 78.8905 15.888C77.9305 17.04 76.6825 17.856 75.1465 18.336V18.48C77.0345 18.928 78.5865 19.776 79.8025 21.024C81.0185 22.24 81.6265 24.016 81.6265 26.352C81.6265 27.696 81.4025 28.96 80.9545 30.144C80.5065 31.328 79.8665 32.352 79.0345 33.216C78.2345 34.08 77.2745 34.768 76.1545 35.28C75.0665 35.76 73.8825 36 72.6025 36H59.7865V2.496ZM71.4025 32.496C73.2585 32.496 74.7145 32.08 75.7705 31.248C76.8265 30.416 77.3545 29.136 77.3545 27.408V25.44C77.3545 23.744 76.8265 22.48 75.7705 21.648C74.7145 20.784 73.2585 20.352 71.4025 20.352H63.8185V32.496H71.4025ZM70.7305 17.04C72.4265 17.04 73.7545 16.672 74.7145 15.936C75.6745 15.168 76.1545 14.016 76.1545 12.48V10.608C76.1545 9.072 75.6745 7.92 74.7145 7.152C73.7545 6.384 72.4265 6 70.7305 6H63.8185V17.04H70.7305ZM88.1838 32.736H96.8238V3.744H88.1838V0.48H100.664V32.736H109.304V36H88.1838V32.736ZM127.525 36.576C125.797 36.576 124.229 36.272 122.821 35.664C121.445 35.056 120.261 34.192 119.269 33.072C118.309 31.92 117.573 30.56 117.061 28.992C116.549 27.392 116.293 25.6 116.293 23.616C116.293 21.664 116.549 19.888 117.061 18.288C117.573 16.688 118.309 15.328 119.269 14.208C120.261 13.056 121.445 12.176 122.821 11.568C124.229 10.96 125.797 10.656 127.525 10.656C129.253 10.656 130.805 10.96 132.181 11.568C133.589 12.176 134.773 13.056 135.733 14.208C136.725 15.328 137.477 16.688 137.989 18.288C138.501 19.888 138.757 21.664 138.757 23.616C138.757 25.6 138.501 27.392 137.989 28.992C137.477 30.56 136.725 31.92 135.733 33.072C134.773 34.192 133.589 35.056 132.181 35.664C130.805 36.272 129.253 36.576 127.525 36.576ZM127.525 33.264C129.669 33.264 131.397 32.624 132.709 31.344C134.021 30.064 134.677 28.08 134.677 25.392V21.84C134.677 19.152 134.021 17.168 132.709 15.888C131.397 14.608 129.669 13.968 127.525 13.968C125.381 13.968 123.653 14.608 122.341 15.888C121.029 17.168 120.373 19.152 120.373 21.84V25.392C120.373 28.08 121.029 30.064 122.341 31.344C123.653 32.624 125.381 33.264 127.525 33.264ZM168.834 38.832C168.834 41.328 167.794 43.168 165.714 44.352C163.634 45.568 160.514 46.176 156.354 46.176C152.354 46.176 149.474 45.648 147.714 44.592C145.986 43.536 145.122 42.016 145.122 40.032C145.122 38.688 145.474 37.648 146.178 36.912C146.882 36.176 147.874 35.632 149.154 35.28V34.704C148.45 34.352 147.906 33.904 147.522 33.36C147.138 32.816 146.946 32.128 146.946 31.296C146.946 30.016 147.362 29.056 148.194 28.416C149.058 27.776 150.13 27.296 151.41 26.976V26.784C149.874 26.112 148.674 25.12 147.81 23.808C146.978 22.496 146.562 20.96 146.562 19.2C146.562 17.952 146.786 16.8 147.234 15.744C147.682 14.688 148.322 13.792 149.154 13.056C150.018 12.288 151.042 11.696 152.226 11.28C153.41 10.864 154.722 10.656 156.162 10.656C158.018 10.656 159.65 10.992 161.058 11.664V11.232C161.058 10.272 161.282 9.472 161.73 8.832C162.178 8.192 162.946 7.872 164.034 7.872H168.594V11.232H163.026V12.912C163.922 13.68 164.61 14.592 165.09 15.648C165.57 16.704 165.81 17.888 165.81 19.2C165.81 20.448 165.57 21.6 165.09 22.656C164.642 23.712 164.002 24.624 163.17 25.392C162.338 26.128 161.314 26.704 160.098 27.12C158.914 27.536 157.602 27.744 156.162 27.744C155.746 27.744 155.346 27.728 154.962 27.696C154.578 27.664 154.194 27.616 153.81 27.552C153.426 27.616 153.026 27.728 152.61 27.888C152.194 28.016 151.81 28.208 151.458 28.464C151.106 28.688 150.818 28.96 150.594 29.28C150.37 29.6 150.258 29.968 150.258 30.384C150.258 31.12 150.626 31.616 151.362 31.872C152.098 32.096 153.058 32.208 154.242 32.208H159.714C162.914 32.208 165.234 32.816 166.674 34.032C168.114 35.216 168.834 36.816 168.834 38.832ZM165.234 39.024C165.234 38.032 164.834 37.232 164.034 36.624C163.234 36.048 161.842 35.76 159.858 35.76H151.266C149.602 36.432 148.77 37.552 148.77 39.12C148.77 40.208 149.202 41.136 150.066 41.904C150.93 42.704 152.37 43.104 154.386 43.104H158.13C160.37 43.104 162.114 42.752 163.362 42.048C164.61 41.376 165.234 40.368 165.234 39.024ZM156.162 24.768C158.082 24.768 159.49 24.32 160.386 23.424C161.314 22.528 161.778 21.344 161.778 19.872V18.48C161.778 17.008 161.314 15.84 160.386 14.976C159.49 14.08 158.082 13.632 156.162 13.632C154.242 13.632 152.834 14.08 151.938 14.976C151.042 15.84 150.594 17.008 150.594 18.48V19.872C150.594 21.344 151.042 22.528 151.938 23.424C152.834 24.32 154.242 24.768 156.162 24.768Z" fill="black"/>
</svg>
